<svg width="20" height="20" viewBox="0 0 20 20" fill="none" xmlns="http://www.w3.org/2000/svg">
<circle cx="10" cy="10" r="10" fill="#FDFDFD"/>
<path d="M10 3.33334C6.32671 3.33334 3.33337 6.32668 3.33337 10C3.33337 13.6733 6.32671 16.6667 10 16.6667C13.6734 16.6667 16.6667 13.6733 16.6667 10C16.6667 6.32668 13.6734 3.33334 10 3.33334ZM12.24 11.5333C12.4334 11.7267 12.4334 12.0467 12.24 12.24C12.14 12.34 12.0134 12.3867 11.8867 12.3867C11.76 12.3867 11.6334 12.34 11.5334 12.24L10 10.7067L8.46671 12.24C8.36671 12.34 8.24004 12.3867 8.11337 12.3867C7.98671 12.3867 7.86004 12.34 7.76004 12.24C7.56671 12.0467 7.56671 11.7267 7.76004 11.5333L9.29337 10L7.76004 8.46668C7.56671 8.27334 7.56671 7.95334 7.76004 7.76001C7.95337 7.56668 8.27337 7.56668 8.46671 7.76001L10 9.29334L11.5334 7.76001C11.7267 7.56668 12.0467 7.56668 12.24 7.76001C12.4334 7.95334 12.4334 8.27334 12.24 8.46668L10.7067 10L12.24 11.5333Z" fill="#EB5757"/>
</svg>
