<svg width="10" height="10" viewBox="0 0 10 10" fill="none" xmlns="http://www.w3.org/2000/svg">
<path d="M4.5 3.5H5.5C5.63261 3.5 5.75979 3.55268 5.85355 3.64645C5.94732 3.74021 6 3.86739 6 4C6 4.13261 6.05268 4.25978 6.14645 4.35355C6.24022 4.44732 6.36739 4.5 6.5 4.5C6.63261 4.5 6.75979 4.44732 6.85355 4.35355C6.94732 4.25978 7 4.13261 7 4C7 3.60217 6.84197 3.22064 6.56066 2.93934C6.27936 2.65803 5.89783 2.5 5.5 2.5H4.5C4.10218 2.5 3.72065 2.65803 3.43934 2.93934C3.15804 3.22064 3 3.60217 3 4V6C3 6.39782 3.15804 6.77935 3.43934 7.06066C3.72065 7.34196 4.10218 7.5 4.5 7.5H5.5C5.89783 7.5 6.27936 7.34196 6.56066 7.06066C6.84197 6.77935 7 6.39782 7 6C7 5.86739 6.94732 5.74021 6.85355 5.64644C6.75979 5.55268 6.63261 5.5 6.5 5.5C6.36739 5.5 6.24022 5.55268 6.14645 5.64644C6.05268 5.74021 6 5.86739 6 6C6 6.13261 5.94732 6.25978 5.85355 6.35355C5.75979 6.44732 5.63261 6.5 5.5 6.5H4.5C4.36739 6.5 4.24022 6.44732 4.14645 6.35355C4.05268 6.25978 4 6.13261 4 6V4C4 3.86739 4.05268 3.74021 4.14645 3.64645C4.24022 3.55268 4.36739 3.5 4.5 3.5ZM5 0C4.0111 0 3.0444 0.293245 2.22215 0.842652C1.3999 1.39206 0.759043 2.17295 0.380605 3.08658C0.00216642 4.00021 -0.0968502 5.00555 0.0960758 5.97545C0.289002 6.94535 0.765206 7.83627 1.46447 8.53553C2.16373 9.23479 3.05465 9.711 4.02455 9.90392C4.99445 10.0969 5.99979 9.99783 6.91342 9.6194C7.82705 9.24096 8.60794 8.60009 9.15735 7.77785C9.70675 6.9556 10 5.9889 10 5C10 4.34339 9.87067 3.69321 9.6194 3.08658C9.36812 2.47995 8.99983 1.92876 8.53553 1.46447C8.07124 1.00017 7.52005 0.631876 6.91342 0.380602C6.30679 0.129329 5.65661 0 5 0ZM5 9C4.20888 9 3.43552 8.7654 2.77772 8.32588C2.11992 7.88635 1.60723 7.26164 1.30448 6.53073C1.00173 5.79983 0.92252 4.99556 1.07686 4.21964C1.2312 3.44371 1.61216 2.73098 2.17157 2.17157C2.73098 1.61216 3.44372 1.2312 4.21964 1.07686C4.99556 0.922518 5.79983 1.00173 6.53074 1.30448C7.26164 1.60723 7.88635 2.11992 8.32588 2.77772C8.7654 3.43551 9 4.20887 9 5C9 6.06086 8.57857 7.07828 7.82843 7.82842C7.07828 8.57857 6.06087 9 5 9Z" fill="#A7A7A7"/>
</svg>
