<svg width="104" height="104" viewBox="0 0 104 104" fill="none" xmlns="http://www.w3.org/2000/svg">
<rect x="0.5" y="0.5" width="102.964" height="102.96" rx="9.5" fill="#EDF8F8" stroke="#84BDF2" stroke-dasharray="8 8"/>
<g clip-path="url(#clip0)">
<path d="M61.7498 55.25V58.5H64.9998V60.6667H61.7498V63.9167H59.5832V60.6667H56.3332V58.5H59.5832V55.25H61.7498ZM61.7585 42.25C62.3522 42.25 62.8332 42.7321 62.8332 43.3257V53.4538C62.1373 53.208 61.4045 53.0827 60.6665 53.0833V44.4167H43.3332L43.3343 59.5833L53.4006 49.5159C53.5869 49.329 53.835 49.2166 54.0984 49.1999C54.3617 49.1831 54.6221 49.2631 54.8306 49.4249L54.9313 49.517L58.7728 53.3628C57.9329 53.6188 57.1534 54.0422 56.4815 54.6075C55.8096 55.1729 55.2592 55.8684 54.8634 56.6523C54.4675 57.4361 54.2346 58.292 54.1785 59.1683C54.1224 60.0446 54.2444 60.9232 54.537 61.7511L42.2412 61.75C41.9561 61.7497 41.6827 61.6362 41.4812 61.4345C41.2797 61.2328 41.1665 60.9594 41.1665 60.6742V43.3257C41.1685 43.0412 41.2823 42.7689 41.4834 42.5677C41.6845 42.3664 41.9567 42.2523 42.2412 42.25H61.7585ZM47.6665 46.5833C48.2411 46.5833 48.7922 46.8116 49.1986 47.2179C49.6049 47.6243 49.8332 48.1754 49.8332 48.75C49.8332 49.3246 49.6049 49.8757 49.1986 50.2821C48.7922 50.6884 48.2411 50.9167 47.6665 50.9167C47.0919 50.9167 46.5408 50.6884 46.1344 50.2821C45.7281 49.8757 45.4998 49.3246 45.4998 48.75C45.4998 48.1754 45.7281 47.6243 46.1344 47.2179C46.5408 46.8116 47.0919 46.5833 47.6665 46.5833Z" fill="#84BDF2"/>
</g>
<defs>
<clipPath id="clip0">
<rect width="26" height="26" fill="white" transform="translate(39 39)"/>
</clipPath>
</defs>
</svg>
