<svg width="24" height="24" viewBox="0 0 24 24" fill="none" xmlns="http://www.w3.org/2000/svg">
<path d="M16.8799 10C14.2599 10 12.1299 12.13 12.1299 14.75C12.1299 15.64 12.3799 16.48 12.8199 17.2C13.6399 18.58 15.1499 19.5 16.8799 19.5C18.6099 19.5 20.1199 18.57 20.9399 17.2C21.3799 16.49 21.6299 15.64 21.6299 14.75C21.6299 12.13 19.5099 10 16.8799 10ZM18.6599 15.48H17.6299V16.55C17.6299 16.96 17.2899 17.3 16.8799 17.3C16.4699 17.3 16.1299 16.96 16.1299 16.55V15.48H15.1099C14.6999 15.48 14.3599 15.14 14.3599 14.73C14.3599 14.32 14.6999 13.98 15.1099 13.98H16.1299V13C16.1299 12.59 16.4699 12.25 16.8799 12.25C17.2899 12.25 17.6299 12.59 17.6299 13V13.98H18.6599C19.0699 13.98 19.4099 14.32 19.4099 14.73C19.4099 15.14 19.0699 15.48 18.6599 15.48Z" fill="white"/>
<path d="M20.5799 4.02V6.24C20.5799 7.05 20.0799 8.06 19.5799 8.57L19.3999 8.73C19.2599 8.86 19.0499 8.89 18.8699 8.83C18.6699 8.76 18.4699 8.71 18.2699 8.66C17.8299 8.55 17.3599 8.5 16.8799 8.5C13.4299 8.5 10.6299 11.3 10.6299 14.75C10.6299 15.89 10.9399 17.01 11.5299 17.97C12.0299 18.81 12.7299 19.51 13.4899 19.98C13.7199 20.13 13.8099 20.45 13.6099 20.63C13.5399 20.69 13.4699 20.74 13.3999 20.79L11.9999 21.7C10.6999 22.51 8.90992 21.6 8.90992 19.98V14.63C8.90992 13.92 8.50992 13.01 8.10992 12.51L4.31992 8.47C3.81992 7.96 3.41992 7.05 3.41992 6.45V4.12C3.41992 2.91 4.31992 2 5.40992 2H18.5899C19.6799 2 20.5799 2.91 20.5799 4.02Z" fill="white"/>
</svg>
