<svg width="50" height="50" viewBox="0 0 50 50" fill="none" xmlns="http://www.w3.org/2000/svg">
<path d="M45.8333 20.3126C44.9792 20.3126 44.2708 19.6043 44.2708 18.7501V14.5834C44.2708 9.20843 40.7917 5.72926 35.4167 5.72926H31.25C30.3958 5.72926 29.6875 5.02093 29.6875 4.16676C29.6875 3.3126 30.3958 2.60426 31.25 2.60426H35.4167C42.5833 2.60426 47.3958 7.41676 47.3958 14.5834V18.7501C47.3958 19.6043 46.6875 20.3126 45.8333 20.3126Z" fill="white"/>
<path d="M4.16705 20.3126C3.31289 20.3126 2.60455 19.6043 2.60455 18.7501V14.5834C2.60455 7.41676 7.41705 2.60426 14.5837 2.60426H18.7504C19.6046 2.60426 20.3129 3.3126 20.3129 4.16676C20.3129 5.02093 19.6046 5.72926 18.7504 5.72926H14.5837C9.20872 5.72926 5.72955 9.20843 5.72955 14.5834V18.7501C5.72955 19.6043 5.02122 20.3126 4.16705 20.3126Z" fill="white"/>
<path d="M35.4167 47.3958H31.25C30.3958 47.3958 29.6875 46.6875 29.6875 45.8333C29.6875 44.9792 30.3958 44.2708 31.25 44.2708H35.4167C40.7917 44.2708 44.2708 40.7917 44.2708 35.4167V31.25C44.2708 30.3958 44.9792 29.6875 45.8333 29.6875C46.6875 29.6875 47.3958 30.3958 47.3958 31.25V35.4167C47.3958 42.5833 42.5833 47.3958 35.4167 47.3958Z" fill="white"/>
<path d="M18.7504 47.3958H14.5837C7.41705 47.3958 2.60455 42.5833 2.60455 35.4167V31.25C2.60455 30.3958 3.31289 29.6875 4.16705 29.6875C5.02122 29.6875 5.72955 30.3958 5.72955 31.25V35.4167C5.72955 40.7917 9.20872 44.2708 14.5837 44.2708H18.7504C19.6046 44.2708 20.3129 44.9792 20.3129 45.8333C20.3129 46.6875 19.6046 47.3958 18.7504 47.3958Z" fill="white"/>
<path d="M29.2731 26.0695C29.9517 26.0695 30.5018 26.6245 30.5018 27.3031C30.5018 30.7202 29.686 34.02 28.1488 36.9819C27.9956 37.2666 27.6387 37.3706 27.3565 37.2126L26.7861 36.8933C26.1986 36.5645 25.9918 35.8239 26.2793 35.2151C27.3563 32.9342 27.9596 30.4439 28.0358 27.8656L28.0444 27.3031C28.0444 26.6245 28.5945 26.0695 29.2731 26.0695ZM23.1296 23.5975C23.1296 22.9189 23.6797 22.3688 24.3583 22.3688C25.0369 22.3688 25.587 22.9189 25.587 23.5975V27.3031L25.5808 27.7707C25.488 31.1478 24.3303 34.4084 22.2744 37.083C22.1183 37.2797 21.8315 37.3105 21.6372 37.1515L21.0301 36.6544C20.5084 36.2273 20.4362 35.4612 20.8135 34.9024C22.2366 32.7942 23.0416 30.3168 23.1222 27.7546L23.1296 27.3031V23.5975ZM24.3583 17.4344C25.9876 17.4344 27.5503 18.0842 28.7024 19.2409C29.5637 20.1056 30.1428 21.2006 30.3803 22.3816C30.5141 23.0469 29.9517 23.6023 29.2731 23.6023C28.5945 23.6023 28.0635 23.0377 27.843 22.3959C27.6623 21.8699 27.3641 21.3864 26.9648 20.9855C26.2735 20.2915 25.3359 19.9016 24.3583 19.9016C23.3807 19.9016 22.4431 20.2915 21.7518 20.9855C21.0605 21.6795 20.6721 22.6208 20.6721 23.6023V27.3031C20.6721 30.0602 19.6646 32.6618 17.8817 34.6763C17.7388 34.832 17.4957 34.8399 17.343 34.6938L16.7214 34.099C16.2354 33.634 16.2258 32.8676 16.6161 32.3198C17.5798 30.9675 18.1374 29.3556 18.2074 27.6769L18.2147 27.3031V23.6023C18.2147 21.9665 18.862 20.3977 20.0141 19.2409C21.1663 18.0842 22.7289 17.4344 24.3583 17.4344ZM24.3583 12.5C27.2911 12.5 30.1039 13.6697 32.1777 15.7518C34.2516 17.8339 35.4167 20.6578 35.4167 23.6023V27.3031C35.4167 29.3978 35.1685 31.4603 34.6831 33.4587C34.5892 33.8243 34.2142 34.0421 33.8502 33.9425L33.3163 33.7964C32.6668 33.6187 32.2872 32.9492 32.4294 32.291C32.732 30.8907 32.9063 29.4577 32.9494 28.0038L32.9592 27.3031V23.6023C32.9592 21.9997 32.515 20.4288 31.6763 19.0652C30.8376 17.7016 29.6375 16.5993 28.2102 15.8816C26.783 15.1639 25.185 14.859 23.595 15.0013C22.3677 15.111 21.1826 15.4838 20.1179 16.0896C19.5749 16.3985 18.8796 16.3574 18.4389 15.9146C17.914 15.3873 17.9599 14.5153 18.5939 14.1257C20.3212 13.0644 22.3152 12.497 24.3583 12.5ZM14.9157 17.8207C15.3039 17.1828 16.1799 17.1367 16.707 17.6655C17.1453 18.1052 17.1854 18.7955 16.8792 19.3354C16.194 20.5433 15.8082 21.9051 15.7622 23.305L15.7573 23.6023L15.7622 26.0695C15.7622 27.4512 15.4378 28.7871 14.8259 29.9887C14.721 30.1845 14.475 30.2551 14.2822 30.1445L13.5501 29.7248C12.9696 29.3919 12.7811 28.6539 12.9918 28.0187C13.1607 27.5093 13.2629 26.9764 13.2937 26.4297L13.3048 26.0695V23.6023C13.2989 21.5536 13.8612 19.5535 14.9157 17.8207Z" fill="white"/>
</svg>
