<svg width="32" height="32" viewBox="0 0 32 32" fill="none" xmlns="http://www.w3.org/2000/svg">
<path d="M16 2.66666C8.65333 2.66666 2.66666 8.65332 2.66666 16C2.66666 23.3467 8.65333 29.3333 16 29.3333C23.3467 29.3333 29.3333 23.3467 29.3333 16C29.3333 8.65332 23.3467 2.66666 16 2.66666ZM21.8 20.76C21.6133 21.08 21.28 21.2533 20.9333 21.2533C20.76 21.2533 20.5867 21.2133 20.4267 21.1067L16.2933 18.64C15.2667 18.0267 14.5067 16.68 14.5067 15.4933V10.0267C14.5067 9.47999 14.96 9.02666 15.5067 9.02666C16.0533 9.02666 16.5067 9.47999 16.5067 10.0267V15.4933C16.5067 15.9733 16.9067 16.68 17.32 16.92L21.4533 19.3867C21.9333 19.6667 22.0933 20.28 21.8 20.76Z" fill="#F7F9FF"/>
</svg>
