<svg width="50" height="50" viewBox="0 0 50 50" fill="none" xmlns="http://www.w3.org/2000/svg">
<path d="M19.9375 39.2083C19.5417 39.2083 19.1458 39.0625 18.8333 38.75L6.1875 26.1042C5.58333 25.5 5.58333 24.5 6.1875 23.8958L18.8333 11.25C19.4375 10.6458 20.4375 10.6458 21.0417 11.25C21.6458 11.8542 21.6458 12.8542 21.0417 13.4583L9.5 25L21.0417 36.5417C21.6458 37.1458 21.6458 38.1458 21.0417 38.75C20.75 39.0625 20.3333 39.2083 19.9375 39.2083Z" fill="white"/>
<path d="M42.7083 26.5625H7.64584C6.79168 26.5625 6.08334 25.8542 6.08334 25C6.08334 24.1458 6.79168 23.4375 7.64584 23.4375H42.7083C43.5625 23.4375 44.2708 24.1458 44.2708 25C44.2708 25.8542 43.5625 26.5625 42.7083 26.5625Z" fill="white"/>
</svg>
