<svg width="32" height="32" viewBox="0 0 32 32" fill="none" xmlns="http://www.w3.org/2000/svg">
<path d="M22.8 2.66666H17.2C12.9612 2.66666 11.0433 4.21772 10.7265 7.98755C10.6799 8.5425 11.135 8.99999 11.6919 8.99999H14.8C20.4 8.99999 23 11.6 23 17.2V20.3081C23 20.865 23.4575 21.3201 24.0124 21.2734C27.7823 20.9567 29.3333 19.0388 29.3333 14.8V9.19999C29.3333 4.53332 27.4667 2.66666 22.8 2.66666Z" fill="#F7F9FF"/>
<path d="M14.8 10.6667H9.2C4.53333 10.6667 2.66667 12.5333 2.66667 17.2V22.8C2.66667 27.4667 4.53333 29.3333 9.2 29.3333H14.8C19.4667 29.3333 21.3333 27.4667 21.3333 22.8V17.2C21.3333 12.5333 19.4667 10.6667 14.8 10.6667ZM16.3867 18.2L11.44 23.1467C11.2533 23.3333 11.0133 23.4267 10.76 23.4267C10.5067 23.4267 10.2667 23.3333 10.08 23.1467L7.6 20.6667C7.22667 20.2933 7.22667 19.6933 7.6 19.32C7.97333 18.9467 8.57333 18.9467 8.94667 19.32L10.7467 21.12L15.0267 16.84C15.4 16.4667 16 16.4667 16.3733 16.84C16.7467 17.2133 16.76 17.8267 16.3867 18.2Z" fill="#F7F9FF"/>
</svg>
