<svg width="20" height="20" viewBox="0 0 20 20" fill="none" xmlns="http://www.w3.org/2000/svg">
<path d="M14.1667 8.33332H15.8333C17.5 8.33332 18.3333 7.49999 18.3333 5.83332V4.16666C18.3333 2.49999 17.5 1.66666 15.8333 1.66666H14.1667C12.5 1.66666 11.6667 2.49999 11.6667 4.16666V5.83332C11.6667 7.49999 12.5 8.33332 14.1667 8.33332Z" stroke="white" stroke-width="1.5" stroke-miterlimit="10" stroke-linecap="round" stroke-linejoin="round"/>
<path d="M4.16667 18.3333H5.83334C7.5 18.3333 8.33334 17.5 8.33334 15.8333V14.1667C8.33334 12.5 7.5 11.6667 5.83334 11.6667H4.16667C2.50001 11.6667 1.66667 12.5 1.66667 14.1667V15.8333C1.66667 17.5 2.50001 18.3333 4.16667 18.3333Z" stroke="white" stroke-width="1.5" stroke-miterlimit="10" stroke-linecap="round" stroke-linejoin="round"/>
<path d="M5 8.33332C6.84095 8.33332 8.33334 6.84094 8.33334 4.99999C8.33334 3.15904 6.84095 1.66666 5 1.66666C3.15906 1.66666 1.66667 3.15904 1.66667 4.99999C1.66667 6.84094 3.15906 8.33332 5 8.33332Z" stroke="white" stroke-width="1.5" stroke-miterlimit="10" stroke-linecap="round" stroke-linejoin="round"/>
<path d="M15 18.3333C16.841 18.3333 18.3333 16.8409 18.3333 15C18.3333 13.159 16.841 11.6667 15 11.6667C13.1591 11.6667 11.6667 13.159 11.6667 15C11.6667 16.8409 13.1591 18.3333 15 18.3333Z" stroke="white" stroke-width="1.5" stroke-miterlimit="10" stroke-linecap="round" stroke-linejoin="round"/>
</svg>
