<svg width="153" height="153" viewBox="0 0 153 153" fill="none" xmlns="http://www.w3.org/2000/svg">
    <rect x="8" y="8" width="137.92" height="137.916" rx="68.9582" fill="white" stroke="#2972FE"
        stroke-width="5" />
    <mask id="mask0_173_697" style="mask-type:alpha" x="8" y="8" width="138" height="138">
        <rect x="8" y="8" width="137.92" height="137.916" rx="68.9582" fill="#2972FE" />
    </mask>
    <g mask="url(#mask0_173_697)">
        <path
            d="M62.3604 97.1352V97.3293C62.308 101.373 58.8996 104.414 52.1353 106.453C60.2882 112.366 68.4411 117.095 76.5872 117.095C84.7334 117.095 92.8853 112.36 101.038 106.448C94.3198 104.408 90.9121 101.364 90.815 97.3148C90.815 96.5926 90.8209 95.5677 90.8248 93.643C90.8248 93.3376 90.8248 93.0244 90.8248 92.7035C91.31 92.7724 91.2712 92.7287 90.8248 92.6064C90.8383 87.5429 90.8597 80.7333 90.8898 73.814C97.2617 65.5766 94.9206 55.9183 92.928 56.16C90.4783 56.4512 69.27 36.3824 65.2023 35.3555C61.1345 34.3286 50.8017 37.647 49.0226 46.9054C47.2435 56.1639 46.4991 79.4948 53.2456 88.8095C55.1648 91.4624 58.1875 92.4977 62.3138 91.9154C62.3196 93.8566 62.3313 94.9397 62.3594 97.1342L62.3604 97.1352Z"
            fill="url(#paint0_linear_173_697)" />
        <path opacity="0.228"
            d="M62.3547 91.9378C68.0166 91.365 73.4818 89.5481 78.3597 86.617C78.3597 86.617 71.6287 95.5377 62.3547 97.2595V91.9378Z"
            fill="#DB844C" />
        <path
            d="M123.211 118.66C127.428 127.228 129.855 146.988 129.855 146.988H23.5315C23.5315 146.988 25.958 127.226 30.1761 118.66C34.3943 110.095 59.0151 102.147 59.0151 102.147C63.7613 111.884 89.807 111.883 94.3542 102.147C94.3542 102.147 118.989 110.092 123.211 118.66Z"
            fill="#2972FE" />
        <path
            d="M96.4318 72.1641C99.4949 64.8158 111.767 49.8523 101.188 40.5395C97.6324 23.2457 77.9819 25.1606 64.8664 29.1507C56.0515 31.8334 49.3953 37.1328 47.9724 33.1417C39.0808 40.5395 43.5339 47.7753 49.3953 49.8523C54.716 51.7372 63.7124 53.6172 79.0098 51.8478C81.742 51.5314 81.1703 59.8775 82.63 60.7772C84.8207 62.1312 86.5211 53.6192 92.53 56.1747C98.5389 58.7303 94.972 70.5821 88.5254 70.5821C86.3027 70.5821 85.1914 76.6774 91.1926 79.56C95.5427 81.6982 94.4421 76.9384 96.4318 72.1641Z"
            fill="#192734" />
    </g>
    <circle cx="76.5" cy="76.5" r="76" stroke="#2972FE" />
    <defs>
        <linearGradient id="paint0_linear_173_697" x1="47.7961" y1="35.176" x2="47.7961"
            y2="117.095" gradientUnits="userSpaceOnUse">
            <stop stop-color="#FFE2CF" />
            <stop offset="1" stop-color="#FFE2CF" />
        </linearGradient>
    </defs>
</svg>
