<svg width="196" height="33" viewBox="0 0 196 33" fill="none" xmlns="http://www.w3.org/2000/svg">
<path d="M15.9494 27.337C11.381 27.337 7.77434 26.0741 7.01294 22.2444H32.5C32.5 11.3259 25.3267 8.18889 16.3502 8.18889C6.77249 8.18889 0 11.7741 0 20.6148C0 29.4148 6.97286 33 15.9494 33C24.6855 33 30.5363 30.1074 32.0992 23.9963H25.2866C23.5635 26.4407 20.6781 27.337 15.9494 27.337ZM16.3101 13.4852C20.6381 13.4852 24.0043 14.4222 25.1664 17.8037H7.25338C8.33538 14.4222 11.6214 13.4852 16.3101 13.4852Z" fill="#2972FE"/>
<path d="M36.3452 15.8481V21.6333H68.4043V15.8481H36.3452Z" fill="#2972FE"/>
<path d="M95.5882 14.4222V8.59629H84.4076V1.62963L77.5149 3.62593V8.59629H71.3034V14.4222H77.5149V25.3815C77.5149 30.6778 81.4421 33 87.5334 33C90.6992 33 93.304 32.7963 95.5882 32.3889V26.7667C92.8231 27.1741 91.6209 27.1741 89.4569 27.1741C85.2892 27.1741 84.4076 25.9926 84.4076 21.3481V14.4222H95.5882Z" fill="#2972FE"/>
<path d="M114.228 8.18889C109.299 8.18889 104.57 9.08518 99.7612 10.6741L102.206 15.7667C107.055 14.3 110.822 14.0148 113.907 14.0148C117.113 14.0148 122.884 14.3815 122.884 18.9444C119.798 17.8852 116.071 17.2333 112.024 17.2333C104.53 17.2333 97.7976 19.1889 97.7976 25.4222C97.7976 30.8407 101.925 33 108.537 33C114.108 33 118.716 31.6963 122.884 29.6185V32.5926H129.777V20.4926C129.696 11.4074 124.086 8.18889 114.228 8.18889ZM122.884 25.137C119.357 26.6852 114.228 27.8667 110.501 27.8667C106.934 27.8667 104.65 27.663 104.65 25.137C104.65 22.6926 107.736 21.7963 112.865 21.7963C117.233 21.7963 120.479 22.4889 122.884 23.263V25.137Z" fill="#2972FE"/>
<path d="M153.587 8.18889C147.857 8.18889 143.208 10.1037 139.842 12.7926V0H132.989V32.5926H139.842V19.1481C141.966 16.6222 146.935 14.2185 151.543 14.2185C157.194 14.2185 158.877 16.8667 158.877 21.9593V32.5926H165.77L165.85 19.3111C165.77 10.4704 159.879 8.18889 153.587 8.18889Z" fill="#2972FE"/>
<path d="M169.032 0V32.5926H175.885V0H169.032Z" fill="#2972FE"/>
<path d="M179.09 0V6.07037H185.942V0H179.09ZM179.09 8.59629V32.5926H185.942V8.59629H179.09Z" fill="#2972FE"/>
<path d="M189.147 0V32.5926H196V0H189.147Z" fill="#2972FE"/>
</svg>
