<svg width="16" height="16" viewBox="0 0 16 16" fill="none" xmlns="http://www.w3.org/2000/svg">
<path d="M14.5067 10.6133L10.24 2.93333C9.66667 1.9 8.87333 1.33333 8 1.33333C7.12667 1.33333 6.33333 1.9 5.76 2.93333L1.49333 10.6133C0.953334 11.5933 0.893334 12.5333 1.32667 13.2733C1.76 14.0133 2.61333 14.42 3.73333 14.42H12.2667C13.3867 14.42 14.24 14.0133 14.6733 13.2733C15.1067 12.5333 15.0467 11.5867 14.5067 10.6133ZM7.5 6C7.5 5.72666 7.72667 5.5 8 5.5C8.27333 5.5 8.5 5.72666 8.5 6V9.33333C8.5 9.60666 8.27333 9.83333 8 9.83333C7.72667 9.83333 7.5 9.60666 7.5 9.33333V6ZM8.47333 11.8067C8.44 11.8333 8.40667 11.86 8.37333 11.8867C8.33333 11.9133 8.29333 11.9333 8.25333 11.9467C8.21333 11.9667 8.17333 11.98 8.12667 11.9867C8.08667 11.9933 8.04 12 8 12C7.96 12 7.91333 11.9933 7.86667 11.9867C7.82667 11.98 7.78667 11.9667 7.74667 11.9467C7.70667 11.9333 7.66667 11.9133 7.62667 11.8867C7.59333 11.86 7.56 11.8333 7.52667 11.8067C7.40667 11.68 7.33333 11.5067 7.33333 11.3333C7.33333 11.16 7.40667 10.9867 7.52667 10.86C7.56 10.8333 7.59333 10.8067 7.62667 10.78C7.66667 10.7533 7.70667 10.7333 7.74667 10.72C7.78667 10.7 7.82667 10.6867 7.86667 10.68C7.95333 10.66 8.04667 10.66 8.12667 10.68C8.17333 10.6867 8.21333 10.7 8.25333 10.72C8.29333 10.7333 8.33333 10.7533 8.37333 10.78C8.40667 10.8067 8.44 10.8333 8.47333 10.86C8.59333 10.9867 8.66667 11.16 8.66667 11.3333C8.66667 11.5067 8.59333 11.68 8.47333 11.8067Z" fill="#4F4F4F"/>
</svg>
